<svg width="278" height="162" viewBox="0 0 278 162" fill="none" xmlns="http://www.w3.org/2000/svg">
<g filter="url(#filter0_d_638_1202)">
<mask id="path-1-outside-1_638_1202" maskUnits="userSpaceOnUse" x="30" y="26" width="218" height="102" fill="black">
<rect fill="white" x="30" y="26" width="218" height="102"/>
<path d="M39 43H47V31H39V43ZM31 63V27H51V31H55V43H51V51H55V63H47V51H43V47H39V63H31ZM59 75V71H71V67H75V63H67V59H63V35H71V59H79V35H87V59H83V67H79V71H75V75H59ZM103 59H111V39H103V59ZM99 63V59H95V39H99V35H115V39H119V59H115V63H99ZM127 63V27H135V47H139V43H143V35H151V43H147V47H143V51H147V55H151V63H143V55H139V51H135V63H127ZM167 59H175V39H167V59ZM163 63V59H159V39H163V35H179V39H183V59H179V63H163ZM39 127V95H31V91H55V95H47V127H39ZM63 127V123H79V115H67V111H63V103H67V99H87V103H71V111H83V115H87V123H83V127H63ZM99 127V123H95V99H103V123H111V99H119V127H99ZM127 127V91H135V111H139V107H143V99H151V107H147V111H143V115H147V119H151V127H143V119H139V115H135V127H127ZM167 95V87H175V95H167ZM159 127V123H167V103H159V99H175V123H183V127H159ZM191 127V91H199V111H203V107H207V99H215V107H211V111H207V115H211V119H215V127H207V119H203V115H199V127H191ZM231 123H239V103H231V123ZM227 127V123H223V103H227V99H243V103H247V123H243V127H227Z"/>
</mask>
<path d="M39 43H47V31H39V43ZM31 63V27H51V31H55V43H51V51H55V63H47V51H43V47H39V63H31ZM59 75V71H71V67H75V63H67V59H63V35H71V59H79V35H87V59H83V67H79V71H75V75H59ZM103 59H111V39H103V59ZM99 63V59H95V39H99V35H115V39H119V59H115V63H99ZM127 63V27H135V47H139V43H143V35H151V43H147V47H143V51H147V55H151V63H143V55H139V51H135V63H127ZM167 59H175V39H167V59ZM163 63V59H159V39H163V35H179V39H183V59H179V63H163ZM39 127V95H31V91H55V95H47V127H39ZM63 127V123H79V115H67V111H63V103H67V99H87V103H71V111H83V115H87V123H83V127H63ZM99 127V123H95V99H103V123H111V99H119V127H99ZM127 127V91H135V111H139V107H143V99H151V107H147V111H143V115H147V119H151V127H143V119H139V115H135V127H127ZM167 95V87H175V95H167ZM159 127V123H167V103H159V99H175V123H183V127H159ZM191 127V91H199V111H203V107H207V99H215V107H211V111H207V115H211V119H215V127H207V119H203V115H199V127H191ZM231 123H239V103H231V123ZM227 127V123H223V103H227V99H243V103H247V123H243V127H227Z" fill="#EDFAFF"/>
<path d="M39 43H38V44H39V43ZM47 43V44H48V43H47ZM47 31H48V30H47V31ZM39 31V30H38V31H39ZM31 63H30V64H31V63ZM31 27V26H30V27H31ZM51 27H52V26H51V27ZM51 31H50V32H51V31ZM55 31H56V30H55V31ZM55 43V44H56V43H55ZM51 43V42H50V43H51ZM51 51H50V52H51V51ZM55 51H56V50H55V51ZM55 63V64H56V63H55ZM47 63H46V64H47V63ZM47 51H48V50H47V51ZM43 51H42V52H43V51ZM43 47H44V46H43V47ZM39 47V46H38V47H39ZM39 63V64H40V63H39ZM39 43V44H47V43V42H39V43ZM47 43H48V31H47H46V43H47ZM47 31V30H39V31V32H47V31ZM39 31H38V43H39H40V31H39ZM31 63H32V27H31H30V63H31ZM31 27V28H51V27V26H31V27ZM51 27H50V31H51H52V27H51ZM51 31V32H55V31V30H51V31ZM55 31H54V43H55H56V31H55ZM55 43V42H51V43V44H55V43ZM51 43H50V51H51H52V43H51ZM51 51V52H55V51V50H51V51ZM55 51H54V63H55H56V51H55ZM55 63V62H47V63V64H55V63ZM47 63H48V51H47H46V63H47ZM47 51V50H43V51V52H47V51ZM43 51H44V47H43H42V51H43ZM43 47V46H39V47V48H43V47ZM39 47H38V63H39H40V47H39ZM39 63V62H31V63V64H39V63ZM59 75H58V76H59V75ZM59 71V70H58V71H59ZM71 71V72H72V71H71ZM71 67V66H70V67H71ZM75 67V68H76V67H75ZM75 63H76V62H75V63ZM67 63H66V64H67V63ZM67 59H68V58H67V59ZM63 59H62V60H63V59ZM63 35V34H62V35H63ZM71 35H72V34H71V35ZM71 59H70V60H71V59ZM79 59V60H80V59H79ZM79 35V34H78V35H79ZM87 35H88V34H87V35ZM87 59V60H88V59H87ZM83 59V58H82V59H83ZM83 67V68H84V67H83ZM79 67V66H78V67H79ZM79 71V72H80V71H79ZM75 71V70H74V71H75ZM75 75V76H76V75H75ZM59 75H60V71H59H58V75H59ZM59 71V72H71V71V70H59V71ZM71 71H72V67H71H70V71H71ZM71 67V68H75V67V66H71V67ZM75 67H76V63H75H74V67H75ZM75 63V62H67V63V64H75V63ZM67 63H68V59H67H66V63H67ZM67 59V58H63V59V60H67V59ZM63 59H64V35H63H62V59H63ZM63 35V36H71V35V34H63V35ZM71 35H70V59H71H72V35H71ZM71 59V60H79V59V58H71V59ZM79 59H80V35H79H78V59H79ZM79 35V36H87V35V34H79V35ZM87 35H86V59H87H88V35H87ZM87 59V58H83V59V60H87V59ZM83 59H82V67H83H84V59H83ZM83 67V66H79V67V68H83V67ZM79 67H78V71H79H80V67H79ZM79 71V70H75V71V72H79V71ZM75 71H74V75H75H76V71H75ZM75 75V74H59V75V76H75V75ZM103 59H102V60H103V59ZM111 59V60H112V59H111ZM111 39H112V38H111V39ZM103 39V38H102V39H103ZM99 63H98V64H99V63ZM99 59H100V58H99V59ZM95 59H94V60H95V59ZM95 39V38H94V39H95ZM99 39V40H100V39H99ZM99 35V34H98V35H99ZM115 35H116V34H115V35ZM115 39H114V40H115V39ZM119 39H120V38H119V39ZM119 59V60H120V59H119ZM115 59V58H114V59H115ZM115 63V64H116V63H115ZM103 59V60H111V59V58H103V59ZM111 59H112V39H111H110V59H111ZM111 39V38H103V39V40H111V39ZM103 39H102V59H103H104V39H103ZM99 63H100V59H99H98V63H99ZM99 59V58H95V59V60H99V59ZM95 59H96V39H95H94V59H95ZM95 39V40H99V39V38H95V39ZM99 39H100V35H99H98V39H99ZM99 35V36H115V35V34H99V35ZM115 35H114V39H115H116V35H115ZM115 39V40H119V39V38H115V39ZM119 39H118V59H119H120V39H119ZM119 59V58H115V59V60H119V59ZM115 59H114V63H115H116V59H115ZM115 63V62H99V63V64H115V63ZM127 63H126V64H127V63ZM127 27V26H126V27H127ZM135 27H136V26H135V27ZM135 47H134V48H135V47ZM139 47V48H140V47H139ZM139 43V42H138V43H139ZM143 43V44H144V43H143ZM143 35V34H142V35H143ZM151 35H152V34H151V35ZM151 43V44H152V43H151ZM147 43V42H146V43H147ZM147 47V48H148V47H147ZM143 47V46H142V47H143ZM143 51H142V52H143V51ZM147 51H148V50H147V51ZM147 55H146V56H147V55ZM151 55H152V54H151V55ZM151 63V64H152V63H151ZM143 63H142V64H143V63ZM143 55H144V54H143V55ZM139 55H138V56H139V55ZM139 51H140V50H139V51ZM135 51V50H134V51H135ZM135 63V64H136V63H135ZM127 63H128V27H127H126V63H127ZM127 27V28H135V27V26H127V27ZM135 27H134V47H135H136V27H135ZM135 47V48H139V47V46H135V47ZM139 47H140V43H139H138V47H139ZM139 43V44H143V43V42H139V43ZM143 43H144V35H143H142V43H143ZM143 35V36H151V35V34H143V35ZM151 35H150V43H151H152V35H151ZM151 43V42H147V43V44H151V43ZM147 43H146V47H147H148V43H147ZM147 47V46H143V47V48H147V47ZM143 47H142V51H143H144V47H143ZM143 51V52H147V51V50H143V51ZM147 51H146V55H147H148V51H147ZM147 55V56H151V55V54H147V55ZM151 55H150V63H151H152V55H151ZM151 63V62H143V63V64H151V63ZM143 63H144V55H143H142V63H143ZM143 55V54H139V55V56H143V55ZM139 55H140V51H139H138V55H139ZM139 51V50H135V51V52H139V51ZM135 51H134V63H135H136V51H135ZM135 63V62H127V63V64H135V63ZM167 59H166V60H167V59ZM175 59V60H176V59H175ZM175 39H176V38H175V39ZM167 39V38H166V39H167ZM163 63H162V64H163V63ZM163 59H164V58H163V59ZM159 59H158V60H159V59ZM159 39V38H158V39H159ZM163 39V40H164V39H163ZM163 35V34H162V35H163ZM179 35H180V34H179V35ZM179 39H178V40H179V39ZM183 39H184V38H183V39ZM183 59V60H184V59H183ZM179 59V58H178V59H179ZM179 63V64H180V63H179ZM167 59V60H175V59V58H167V59ZM175 59H176V39H175H174V59H175ZM175 39V38H167V39V40H175V39ZM167 39H166V59H167H168V39H167ZM163 63H164V59H163H162V63H163ZM163 59V58H159V59V60H163V59ZM159 59H160V39H159H158V59H159ZM159 39V40H163V39V38H159V39ZM163 39H164V35H163H162V39H163ZM163 35V36H179V35V34H163V35ZM179 35H178V39H179H180V35H179ZM179 39V40H183V39V38H179V39ZM183 39H182V59H183H184V39H183ZM183 59V58H179V59V60H183V59ZM179 59H178V63H179H180V59H179ZM179 63V62H163V63V64H179V63ZM39 127H38V128H39V127ZM39 95H40V94H39V95ZM31 95H30V96H31V95ZM31 91V90H30V91H31ZM55 91H56V90H55V91ZM55 95V96H56V95H55ZM47 95V94H46V95H47ZM47 127V128H48V127H47ZM39 127H40V95H39H38V127H39ZM39 95V94H31V95V96H39V95ZM31 95H32V91H31H30V95H31ZM31 91V92H55V91V90H31V91ZM55 91H54V95H55H56V91H55ZM55 95V94H47V95V96H55V95ZM47 95H46V127H47H48V95H47ZM47 127V126H39V127V128H47V127ZM63 127H62V128H63V127ZM63 123V122H62V123H63ZM79 123V124H80V123H79ZM79 115H80V114H79V115ZM67 115H66V116H67V115ZM67 111H68V110H67V111ZM63 111H62V112H63V111ZM63 103V102H62V103H63ZM67 103V104H68V103H67ZM67 99V98H66V99H67ZM87 99H88V98H87V99ZM87 103V104H88V103H87ZM71 103V102H70V103H71ZM71 111H70V112H71V111ZM83 111H84V110H83V111ZM83 115H82V116H83V115ZM87 115H88V114H87V115ZM87 123V124H88V123H87ZM83 123V122H82V123H83ZM83 127V128H84V127H83ZM63 127H64V123H63H62V127H63ZM63 123V124H79V123V122H63V123ZM79 123H80V115H79H78V123H79ZM79 115V114H67V115V116H79V115ZM67 115H68V111H67H66V115H67ZM67 111V110H63V111V112H67V111ZM63 111H64V103H63H62V111H63ZM63 103V104H67V103V102H63V103ZM67 103H68V99H67H66V103H67ZM67 99V100H87V99V98H67V99ZM87 99H86V103H87H88V99H87ZM87 103V102H71V103V104H87V103ZM71 103H70V111H71H72V103H71ZM71 111V112H83V111V110H71V111ZM83 111H82V115H83H84V111H83ZM83 115V116H87V115V114H83V115ZM87 115H86V123H87H88V115H87ZM87 123V122H83V123V124H87V123ZM83 123H82V127H83H84V123H83ZM83 127V126H63V127V128H83V127ZM99 127H98V128H99V127ZM99 123H100V122H99V123ZM95 123H94V124H95V123ZM95 99V98H94V99H95ZM103 99H104V98H103V99ZM103 123H102V124H103V123ZM111 123V124H112V123H111ZM111 99V98H110V99H111ZM119 99H120V98H119V99ZM119 127V128H120V127H119ZM99 127H100V123H99H98V127H99ZM99 123V122H95V123V124H99V123ZM95 123H96V99H95H94V123H95ZM95 99V100H103V99V98H95V99ZM103 99H102V123H103H104V99H103ZM103 123V124H111V123V122H103V123ZM111 123H112V99H111H110V123H111ZM111 99V100H119V99V98H111V99ZM119 99H118V127H119H120V99H119ZM119 127V126H99V127V128H119V127ZM127 127H126V128H127V127ZM127 91V90H126V91H127ZM135 91H136V90H135V91ZM135 111H134V112H135V111ZM139 111V112H140V111H139ZM139 107V106H138V107H139ZM143 107V108H144V107H143ZM143 99V98H142V99H143ZM151 99H152V98H151V99ZM151 107V108H152V107H151ZM147 107V106H146V107H147ZM147 111V112H148V111H147ZM143 111V110H142V111H143ZM143 115H142V116H143V115ZM147 115H148V114H147V115ZM147 119H146V120H147V119ZM151 119H152V118H151V119ZM151 127V128H152V127H151ZM143 127H142V128H143V127ZM143 119H144V118H143V119ZM139 119H138V120H139V119ZM139 115H140V114H139V115ZM135 115V114H134V115H135ZM135 127V128H136V127H135ZM127 127H128V91H127H126V127H127ZM127 91V92H135V91V90H127V91ZM135 91H134V111H135H136V91H135ZM135 111V112H139V111V110H135V111ZM139 111H140V107H139H138V111H139ZM139 107V108H143V107V106H139V107ZM143 107H144V99H143H142V107H143ZM143 99V100H151V99V98H143V99ZM151 99H150V107H151H152V99H151ZM151 107V106H147V107V108H151V107ZM147 107H146V111H147H148V107H147ZM147 111V110H143V111V112H147V111ZM143 111H142V115H143H144V111H143ZM143 115V116H147V115V114H143V115ZM147 115H146V119H147H148V115H147ZM147 119V120H151V119V118H147V119ZM151 119H150V127H151H152V119H151ZM151 127V126H143V127V128H151V127ZM143 127H144V119H143H142V127H143ZM143 119V118H139V119V120H143V119ZM139 119H140V115H139H138V119H139ZM139 115V114H135V115V116H139V115ZM135 115H134V127H135H136V115H135ZM135 127V126H127V127V128H135V127ZM167 95H166V96H167V95ZM167 87V86H166V87H167ZM175 87H176V86H175V87ZM175 95V96H176V95H175ZM159 127H158V128H159V127ZM159 123V122H158V123H159ZM167 123V124H168V123H167ZM167 103H168V102H167V103ZM159 103H158V104H159V103ZM159 99V98H158V99H159ZM175 99H176V98H175V99ZM175 123H174V124H175V123ZM183 123H184V122H183V123ZM183 127V128H184V127H183ZM167 95H168V87H167H166V95H167ZM167 87V88H175V87V86H167V87ZM175 87H174V95H175H176V87H175ZM175 95V94H167V95V96H175V95ZM159 127H160V123H159H158V127H159ZM159 123V124H167V123V122H159V123ZM167 123H168V103H167H166V123H167ZM167 103V102H159V103V104H167V103ZM159 103H160V99H159H158V103H159ZM159 99V100H175V99V98H159V99ZM175 99H174V123H175H176V99H175ZM175 123V124H183V123V122H175V123ZM183 123H182V127H183H184V123H183ZM183 127V126H159V127V128H183V127ZM191 127H190V128H191V127ZM191 91V90H190V91H191ZM199 91H200V90H199V91ZM199 111H198V112H199V111ZM203 111V112H204V111H203ZM203 107V106H202V107H203ZM207 107V108H208V107H207ZM207 99V98H206V99H207ZM215 99H216V98H215V99ZM215 107V108H216V107H215ZM211 107V106H210V107H211ZM211 111V112H212V111H211ZM207 111V110H206V111H207ZM207 115H206V116H207V115ZM211 115H212V114H211V115ZM211 119H210V120H211V119ZM215 119H216V118H215V119ZM215 127V128H216V127H215ZM207 127H206V128H207V127ZM207 119H208V118H207V119ZM203 119H202V120H203V119ZM203 115H204V114H203V115ZM199 115V114H198V115H199ZM199 127V128H200V127H199ZM191 127H192V91H191H190V127H191ZM191 91V92H199V91V90H191V91ZM199 91H198V111H199H200V91H199ZM199 111V112H203V111V110H199V111ZM203 111H204V107H203H202V111H203ZM203 107V108H207V107V106H203V107ZM207 107H208V99H207H206V107H207ZM207 99V100H215V99V98H207V99ZM215 99H214V107H215H216V99H215ZM215 107V106H211V107V108H215V107ZM211 107H210V111H211H212V107H211ZM211 111V110H207V111V112H211V111ZM207 111H206V115H207H208V111H207ZM207 115V116H211V115V114H207V115ZM211 115H210V119H211H212V115H211ZM211 119V120H215V119V118H211V119ZM215 119H214V127H215H216V119H215ZM215 127V126H207V127V128H215V127ZM207 127H208V119H207H206V127H207ZM207 119V118H203V119V120H207V119ZM203 119H204V115H203H202V119H203ZM203 115V114H199V115V116H203V115ZM199 115H198V127H199H200V115H199ZM199 127V126H191V127V128H199V127ZM231 123H230V124H231V123ZM239 123V124H240V123H239ZM239 103H240V102H239V103ZM231 103V102H230V103H231ZM227 127H226V128H227V127ZM227 123H228V122H227V123ZM223 123H222V124H223V123ZM223 103V102H222V103H223ZM227 103V104H228V103H227ZM227 99V98H226V99H227ZM243 99H244V98H243V99ZM243 103H242V104H243V103ZM247 103H248V102H247V103ZM247 123V124H248V123H247ZM243 123V122H242V123H243ZM243 127V128H244V127H243ZM231 123V124H239V123V122H231V123ZM239 123H240V103H239H238V123H239ZM239 103V102H231V103V104H239V103ZM231 103H230V123H231H232V103H231ZM227 127H228V123H227H226V127H227ZM227 123V122H223V123V124H227V123ZM223 123H224V103H223H222V123H223ZM223 103V104H227V103V102H223V103ZM227 103H228V99H227H226V103H227ZM227 99V100H243V99V98H227V99ZM243 99H242V103H243H244V99H243ZM243 103V104H247V103V102H243V103ZM247 103H246V123H247H248V103H247ZM247 123V122H243V123V124H247V123ZM243 123H242V127H243H244V123H243ZM243 127V126H227V127V128H243V127Z" fill="black" mask="url(#path-1-outside-1_638_1202)"/>
</g>
<defs>
<filter id="filter0_d_638_1202" x="0" y="0" width="278" height="162" filterUnits="userSpaceOnUse" color-interpolation-filters="sRGB">
<feFlood flood-opacity="0" result="BackgroundImageFix"/>
<feColorMatrix in="SourceAlpha" type="matrix" values="0 0 0 0 0 0 0 0 0 0 0 0 0 0 0 0 0 0 127 0" result="hardAlpha"/>
<feOffset dy="4"/>
<feGaussianBlur stdDeviation="15"/>
<feComposite in2="hardAlpha" operator="out"/>
<feColorMatrix type="matrix" values="0 0 0 0 0.768627 0 0 0 0 0.121569 0 0 0 0 0.121569 0 0 0 0.6 0"/>
<feBlend mode="normal" in2="BackgroundImageFix" result="effect1_dropShadow_638_1202"/>
<feBlend mode="normal" in="SourceGraphic" in2="effect1_dropShadow_638_1202" result="shape"/>
</filter>
</defs>
</svg>
