<svg width="218" height="102" viewBox="0 0 218 102" fill="none" xmlns="http://www.w3.org/2000/svg">
<mask id="path-1-outside-1_762_511" maskUnits="userSpaceOnUse" x="0" y="0" width="218" height="102" fill="black">
<rect fill="white" width="218" height="102"/>
<path d="M9 17H17V5H9V17ZM1 37V1H21V5H25V17H21V25H25V37H17V25H13V21H9V37H1ZM29 49V45H41V41H45V37H37V33H33V9H41V33H49V9H57V33H53V41H49V45H45V49H29ZM73 33H81V13H73V33ZM69 37V33H65V13H69V9H85V13H89V33H85V37H69ZM97 37V1H105V21H109V17H113V9H121V17H117V21H113V25H117V29H121V37H113V29H109V25H105V37H97ZM137 33H145V13H137V33ZM133 37V33H129V13H133V9H149V13H153V33H149V37H133ZM9 101V69H1V65H25V69H17V101H9ZM33 101V97H49V89H37V85H33V77H37V73H57V77H41V85H53V89H57V97H53V101H33ZM69 101V97H65V73H73V97H81V73H89V101H69ZM97 101V65H105V85H109V81H113V73H121V81H117V85H113V89H117V93H121V101H113V93H109V89H105V101H97ZM137 69V61H145V69H137ZM129 101V97H137V77H129V73H145V97H153V101H129ZM161 101V65H169V85H173V81H177V73H185V81H181V85H177V89H181V93H185V101H177V93H173V89H169V101H161ZM201 97H209V77H201V97ZM197 101V97H193V77H197V73H213V77H217V97H213V101H197Z"/>
</mask>
<path d="M9 17H17V5H9V17ZM1 37V1H21V5H25V17H21V25H25V37H17V25H13V21H9V37H1ZM29 49V45H41V41H45V37H37V33H33V9H41V33H49V9H57V33H53V41H49V45H45V49H29ZM73 33H81V13H73V33ZM69 37V33H65V13H69V9H85V13H89V33H85V37H69ZM97 37V1H105V21H109V17H113V9H121V17H117V21H113V25H117V29H121V37H113V29H109V25H105V37H97ZM137 33H145V13H137V33ZM133 37V33H129V13H133V9H149V13H153V33H149V37H133ZM9 101V69H1V65H25V69H17V101H9ZM33 101V97H49V89H37V85H33V77H37V73H57V77H41V85H53V89H57V97H53V101H33ZM69 101V97H65V73H73V97H81V73H89V101H69ZM97 101V65H105V85H109V81H113V73H121V81H117V85H113V89H117V93H121V101H113V93H109V89H105V101H97ZM137 69V61H145V69H137ZM129 101V97H137V77H129V73H145V97H153V101H129ZM161 101V65H169V85H173V81H177V73H185V81H181V85H177V89H181V93H185V101H177V93H173V89H169V101H161ZM201 97H209V77H201V97ZM197 101V97H193V77H197V73H213V77H217V97H213V101H197Z" fill="#EDFAFF"/>
<path d="M9 17H8V18H9V17ZM17 17V18H18V17H17ZM17 5H18V4H17V5ZM9 5V4H8V5H9ZM1 37H0V38H1V37ZM1 1V0H0V1H1ZM21 1H22V0H21V1ZM21 5H20V6H21V5ZM25 5H26V4H25V5ZM25 17V18H26V17H25ZM21 17V16H20V17H21ZM21 25H20V26H21V25ZM25 25H26V24H25V25ZM25 37V38H26V37H25ZM17 37H16V38H17V37ZM17 25H18V24H17V25ZM13 25H12V26H13V25ZM13 21H14V20H13V21ZM9 21V20H8V21H9ZM9 37V38H10V37H9ZM9 17V18H17V17V16H9V17ZM17 17H18V5H17H16V17H17ZM17 5V4H9V5V6H17V5ZM9 5H8V17H9H10V5H9ZM1 37H2V1H1H0V37H1ZM1 1V2H21V1V0H1V1ZM21 1H20V5H21H22V1H21ZM21 5V6H25V5V4H21V5ZM25 5H24V17H25H26V5H25ZM25 17V16H21V17V18H25V17ZM21 17H20V25H21H22V17H21ZM21 25V26H25V25V24H21V25ZM25 25H24V37H25H26V25H25ZM25 37V36H17V37V38H25V37ZM17 37H18V25H17H16V37H17ZM17 25V24H13V25V26H17V25ZM13 25H14V21H13H12V25H13ZM13 21V20H9V21V22H13V21ZM9 21H8V37H9H10V21H9ZM9 37V36H1V37V38H9V37ZM29 49H28V50H29V49ZM29 45V44H28V45H29ZM41 45V46H42V45H41ZM41 41V40H40V41H41ZM45 41V42H46V41H45ZM45 37H46V36H45V37ZM37 37H36V38H37V37ZM37 33H38V32H37V33ZM33 33H32V34H33V33ZM33 9V8H32V9H33ZM41 9H42V8H41V9ZM41 33H40V34H41V33ZM49 33V34H50V33H49ZM49 9V8H48V9H49ZM57 9H58V8H57V9ZM57 33V34H58V33H57ZM53 33V32H52V33H53ZM53 41V42H54V41H53ZM49 41V40H48V41H49ZM49 45V46H50V45H49ZM45 45V44H44V45H45ZM45 49V50H46V49H45ZM29 49H30V45H29H28V49H29ZM29 45V46H41V45V44H29V45ZM41 45H42V41H41H40V45H41ZM41 41V42H45V41V40H41V41ZM45 41H46V37H45H44V41H45ZM45 37V36H37V37V38H45V37ZM37 37H38V33H37H36V37H37ZM37 33V32H33V33V34H37V33ZM33 33H34V9H33H32V33H33ZM33 9V10H41V9V8H33V9ZM41 9H40V33H41H42V9H41ZM41 33V34H49V33V32H41V33ZM49 33H50V9H49H48V33H49ZM49 9V10H57V9V8H49V9ZM57 9H56V33H57H58V9H57ZM57 33V32H53V33V34H57V33ZM53 33H52V41H53H54V33H53ZM53 41V40H49V41V42H53V41ZM49 41H48V45H49H50V41H49ZM49 45V44H45V45V46H49V45ZM45 45H44V49H45H46V45H45ZM45 49V48H29V49V50H45V49ZM73 33H72V34H73V33ZM81 33V34H82V33H81ZM81 13H82V12H81V13ZM73 13V12H72V13H73ZM69 37H68V38H69V37ZM69 33H70V32H69V33ZM65 33H64V34H65V33ZM65 13V12H64V13H65ZM69 13V14H70V13H69ZM69 9V8H68V9H69ZM85 9H86V8H85V9ZM85 13H84V14H85V13ZM89 13H90V12H89V13ZM89 33V34H90V33H89ZM85 33V32H84V33H85ZM85 37V38H86V37H85ZM73 33V34H81V33V32H73V33ZM81 33H82V13H81H80V33H81ZM81 13V12H73V13V14H81V13ZM73 13H72V33H73H74V13H73ZM69 37H70V33H69H68V37H69ZM69 33V32H65V33V34H69V33ZM65 33H66V13H65H64V33H65ZM65 13V14H69V13V12H65V13ZM69 13H70V9H69H68V13H69ZM69 9V10H85V9V8H69V9ZM85 9H84V13H85H86V9H85ZM85 13V14H89V13V12H85V13ZM89 13H88V33H89H90V13H89ZM89 33V32H85V33V34H89V33ZM85 33H84V37H85H86V33H85ZM85 37V36H69V37V38H85V37ZM97 37H96V38H97V37ZM97 1V0H96V1H97ZM105 1H106V0H105V1ZM105 21H104V22H105V21ZM109 21V22H110V21H109ZM109 17V16H108V17H109ZM113 17V18H114V17H113ZM113 9V8H112V9H113ZM121 9H122V8H121V9ZM121 17V18H122V17H121ZM117 17V16H116V17H117ZM117 21V22H118V21H117ZM113 21V20H112V21H113ZM113 25H112V26H113V25ZM117 25H118V24H117V25ZM117 29H116V30H117V29ZM121 29H122V28H121V29ZM121 37V38H122V37H121ZM113 37H112V38H113V37ZM113 29H114V28H113V29ZM109 29H108V30H109V29ZM109 25H110V24H109V25ZM105 25V24H104V25H105ZM105 37V38H106V37H105ZM97 37H98V1H97H96V37H97ZM97 1V2H105V1V0H97V1ZM105 1H104V21H105H106V1H105ZM105 21V22H109V21V20H105V21ZM109 21H110V17H109H108V21H109ZM109 17V18H113V17V16H109V17ZM113 17H114V9H113H112V17H113ZM113 9V10H121V9V8H113V9ZM121 9H120V17H121H122V9H121ZM121 17V16H117V17V18H121V17ZM117 17H116V21H117H118V17H117ZM117 21V20H113V21V22H117V21ZM113 21H112V25H113H114V21H113ZM113 25V26H117V25V24H113V25ZM117 25H116V29H117H118V25H117ZM117 29V30H121V29V28H117V29ZM121 29H120V37H121H122V29H121ZM121 37V36H113V37V38H121V37ZM113 37H114V29H113H112V37H113ZM113 29V28H109V29V30H113V29ZM109 29H110V25H109H108V29H109ZM109 25V24H105V25V26H109V25ZM105 25H104V37H105H106V25H105ZM105 37V36H97V37V38H105V37ZM137 33H136V34H137V33ZM145 33V34H146V33H145ZM145 13H146V12H145V13ZM137 13V12H136V13H137ZM133 37H132V38H133V37ZM133 33H134V32H133V33ZM129 33H128V34H129V33ZM129 13V12H128V13H129ZM133 13V14H134V13H133ZM133 9V8H132V9H133ZM149 9H150V8H149V9ZM149 13H148V14H149V13ZM153 13H154V12H153V13ZM153 33V34H154V33H153ZM149 33V32H148V33H149ZM149 37V38H150V37H149ZM137 33V34H145V33V32H137V33ZM145 33H146V13H145H144V33H145ZM145 13V12H137V13V14H145V13ZM137 13H136V33H137H138V13H137ZM133 37H134V33H133H132V37H133ZM133 33V32H129V33V34H133V33ZM129 33H130V13H129H128V33H129ZM129 13V14H133V13V12H129V13ZM133 13H134V9H133H132V13H133ZM133 9V10H149V9V8H133V9ZM149 9H148V13H149H150V9H149ZM149 13V14H153V13V12H149V13ZM153 13H152V33H153H154V13H153ZM153 33V32H149V33V34H153V33ZM149 33H148V37H149H150V33H149ZM149 37V36H133V37V38H149V37ZM9 101H8V102H9V101ZM9 69H10V68H9V69ZM1 69H0V70H1V69ZM1 65V64H0V65H1ZM25 65H26V64H25V65ZM25 69V70H26V69H25ZM17 69V68H16V69H17ZM17 101V102H18V101H17ZM9 101H10V69H9H8V101H9ZM9 69V68H1V69V70H9V69ZM1 69H2V65H1H0V69H1ZM1 65V66H25V65V64H1V65ZM25 65H24V69H25H26V65H25ZM25 69V68H17V69V70H25V69ZM17 69H16V101H17H18V69H17ZM17 101V100H9V101V102H17V101ZM33 101H32V102H33V101ZM33 97V96H32V97H33ZM49 97V98H50V97H49ZM49 89H50V88H49V89ZM37 89H36V90H37V89ZM37 85H38V84H37V85ZM33 85H32V86H33V85ZM33 77V76H32V77H33ZM37 77V78H38V77H37ZM37 73V72H36V73H37ZM57 73H58V72H57V73ZM57 77V78H58V77H57ZM41 77V76H40V77H41ZM41 85H40V86H41V85ZM53 85H54V84H53V85ZM53 89H52V90H53V89ZM57 89H58V88H57V89ZM57 97V98H58V97H57ZM53 97V96H52V97H53ZM53 101V102H54V101H53ZM33 101H34V97H33H32V101H33ZM33 97V98H49V97V96H33V97ZM49 97H50V89H49H48V97H49ZM49 89V88H37V89V90H49V89ZM37 89H38V85H37H36V89H37ZM37 85V84H33V85V86H37V85ZM33 85H34V77H33H32V85H33ZM33 77V78H37V77V76H33V77ZM37 77H38V73H37H36V77H37ZM37 73V74H57V73V72H37V73ZM57 73H56V77H57H58V73H57ZM57 77V76H41V77V78H57V77ZM41 77H40V85H41H42V77H41ZM41 85V86H53V85V84H41V85ZM53 85H52V89H53H54V85H53ZM53 89V90H57V89V88H53V89ZM57 89H56V97H57H58V89H57ZM57 97V96H53V97V98H57V97ZM53 97H52V101H53H54V97H53ZM53 101V100H33V101V102H53V101ZM69 101H68V102H69V101ZM69 97H70V96H69V97ZM65 97H64V98H65V97ZM65 73V72H64V73H65ZM73 73H74V72H73V73ZM73 97H72V98H73V97ZM81 97V98H82V97H81ZM81 73V72H80V73H81ZM89 73H90V72H89V73ZM89 101V102H90V101H89ZM69 101H70V97H69H68V101H69ZM69 97V96H65V97V98H69V97ZM65 97H66V73H65H64V97H65ZM65 73V74H73V73V72H65V73ZM73 73H72V97H73H74V73H73ZM73 97V98H81V97V96H73V97ZM81 97H82V73H81H80V97H81ZM81 73V74H89V73V72H81V73ZM89 73H88V101H89H90V73H89ZM89 101V100H69V101V102H89V101ZM97 101H96V102H97V101ZM97 65V64H96V65H97ZM105 65H106V64H105V65ZM105 85H104V86H105V85ZM109 85V86H110V85H109ZM109 81V80H108V81H109ZM113 81V82H114V81H113ZM113 73V72H112V73H113ZM121 73H122V72H121V73ZM121 81V82H122V81H121ZM117 81V80H116V81H117ZM117 85V86H118V85H117ZM113 85V84H112V85H113ZM113 89H112V90H113V89ZM117 89H118V88H117V89ZM117 93H116V94H117V93ZM121 93H122V92H121V93ZM121 101V102H122V101H121ZM113 101H112V102H113V101ZM113 93H114V92H113V93ZM109 93H108V94H109V93ZM109 89H110V88H109V89ZM105 89V88H104V89H105ZM105 101V102H106V101H105ZM97 101H98V65H97H96V101H97ZM97 65V66H105V65V64H97V65ZM105 65H104V85H105H106V65H105ZM105 85V86H109V85V84H105V85ZM109 85H110V81H109H108V85H109ZM109 81V82H113V81V80H109V81ZM113 81H114V73H113H112V81H113ZM113 73V74H121V73V72H113V73ZM121 73H120V81H121H122V73H121ZM121 81V80H117V81V82H121V81ZM117 81H116V85H117H118V81H117ZM117 85V84H113V85V86H117V85ZM113 85H112V89H113H114V85H113ZM113 89V90H117V89V88H113V89ZM117 89H116V93H117H118V89H117ZM117 93V94H121V93V92H117V93ZM121 93H120V101H121H122V93H121ZM121 101V100H113V101V102H121V101ZM113 101H114V93H113H112V101H113ZM113 93V92H109V93V94H113V93ZM109 93H110V89H109H108V93H109ZM109 89V88H105V89V90H109V89ZM105 89H104V101H105H106V89H105ZM105 101V100H97V101V102H105V101ZM137 69H136V70H137V69ZM137 61V60H136V61H137ZM145 61H146V60H145V61ZM145 69V70H146V69H145ZM129 101H128V102H129V101ZM129 97V96H128V97H129ZM137 97V98H138V97H137ZM137 77H138V76H137V77ZM129 77H128V78H129V77ZM129 73V72H128V73H129ZM145 73H146V72H145V73ZM145 97H144V98H145V97ZM153 97H154V96H153V97ZM153 101V102H154V101H153ZM137 69H138V61H137H136V69H137ZM137 61V62H145V61V60H137V61ZM145 61H144V69H145H146V61H145ZM145 69V68H137V69V70H145V69ZM129 101H130V97H129H128V101H129ZM129 97V98H137V97V96H129V97ZM137 97H138V77H137H136V97H137ZM137 77V76H129V77V78H137V77ZM129 77H130V73H129H128V77H129ZM129 73V74H145V73V72H129V73ZM145 73H144V97H145H146V73H145ZM145 97V98H153V97V96H145V97ZM153 97H152V101H153H154V97H153ZM153 101V100H129V101V102H153V101ZM161 101H160V102H161V101ZM161 65V64H160V65H161ZM169 65H170V64H169V65ZM169 85H168V86H169V85ZM173 85V86H174V85H173ZM173 81V80H172V81H173ZM177 81V82H178V81H177ZM177 73V72H176V73H177ZM185 73H186V72H185V73ZM185 81V82H186V81H185ZM181 81V80H180V81H181ZM181 85V86H182V85H181ZM177 85V84H176V85H177ZM177 89H176V90H177V89ZM181 89H182V88H181V89ZM181 93H180V94H181V93ZM185 93H186V92H185V93ZM185 101V102H186V101H185ZM177 101H176V102H177V101ZM177 93H178V92H177V93ZM173 93H172V94H173V93ZM173 89H174V88H173V89ZM169 89V88H168V89H169ZM169 101V102H170V101H169ZM161 101H162V65H161H160V101H161ZM161 65V66H169V65V64H161V65ZM169 65H168V85H169H170V65H169ZM169 85V86H173V85V84H169V85ZM173 85H174V81H173H172V85H173ZM173 81V82H177V81V80H173V81ZM177 81H178V73H177H176V81H177ZM177 73V74H185V73V72H177V73ZM185 73H184V81H185H186V73H185ZM185 81V80H181V81V82H185V81ZM181 81H180V85H181H182V81H181ZM181 85V84H177V85V86H181V85ZM177 85H176V89H177H178V85H177ZM177 89V90H181V89V88H177V89ZM181 89H180V93H181H182V89H181ZM181 93V94H185V93V92H181V93ZM185 93H184V101H185H186V93H185ZM185 101V100H177V101V102H185V101ZM177 101H178V93H177H176V101H177ZM177 93V92H173V93V94H177V93ZM173 93H174V89H173H172V93H173ZM173 89V88H169V89V90H173V89ZM169 89H168V101H169H170V89H169ZM169 101V100H161V101V102H169V101ZM201 97H200V98H201V97ZM209 97V98H210V97H209ZM209 77H210V76H209V77ZM201 77V76H200V77H201ZM197 101H196V102H197V101ZM197 97H198V96H197V97ZM193 97H192V98H193V97ZM193 77V76H192V77H193ZM197 77V78H198V77H197ZM197 73V72H196V73H197ZM213 73H214V72H213V73ZM213 77H212V78H213V77ZM217 77H218V76H217V77ZM217 97V98H218V97H217ZM213 97V96H212V97H213ZM213 101V102H214V101H213ZM201 97V98H209V97V96H201V97ZM209 97H210V77H209H208V97H209ZM209 77V76H201V77V78H209V77ZM201 77H200V97H201H202V77H201ZM197 101H198V97H197H196V101H197ZM197 97V96H193V97V98H197V97ZM193 97H194V77H193H192V97H193ZM193 77V78H197V77V76H193V77ZM197 77H198V73H197H196V77H197ZM197 73V74H213V73V72H197V73ZM213 73H212V77H213H214V73H213ZM213 77V78H217V77V76H213V77ZM217 77H216V97H217H218V77H217ZM217 97V96H213V97V98H217V97ZM213 97H212V101H213H214V97H213ZM213 101V100H197V101V102H213V101Z" fill="black" mask="url(#path-1-outside-1_762_511)"/>
</svg>
